<svg xmlns="http://www.w3.org/2000/svg"><symbol id="crash" xmlns="http://www.w3.org/2000/svg" fill="currentColor" viewBox="0 0 24 24" width="24" height="24" >
  <path d="M24 0s-3 .3-6.6 2.1c-.3.1-.3.5-.1.6l4 4c.1.2.5.1.6-.1 1-2 1.7-4.3 2-6.6zm-8 3h-.3c-4.5 2.6-8 6.5-10.2 11.2v.4l3.8 3.8h.5A25 25 0 0 0 21 8.3v-.5L16.1 3l-.3-.2zm-1.4 3.9a2.2 2.2 0 1 1-1.6 3.5A2.3 2.3 0 0 1 14.6 7zm-6.9.4-1.3.1c-.8.3-1.5.9-1.9 1.6-.8 1.3-1.6 2.6-2.2 4l-.5 1.2c-.2.3 0 .6.4.5l2-.2.3-.5c1-2.2 2.4-4.4 4-6.2l-.1-.4h-.7zm8.6 8.2c-2 1.6-4 3-6.3 4l-.5.2-.3 2c0 .4.3.6.6.5l1.2-.5 4-2.2a3.4 3.4 0 0 0 1.5-3.9l-.2-.1zm-12 1.2c-1.4 0-3.3.9-4.3 4 0 .2.2.3.3.2.5-.4 1.4-1 2-.8-1.2.7-2 2.2-1.7 3.7 0 .2.3.3.4.1.3-.5 1.4-1.4 4-2l-1 1h.6c.3 0 3.4-.3 2.6-3.8 0-.2-.3-.2-.4 0-.2.6-.9 1.4-2.9 1.1 0-.3-.5-2.5 1-3 .3-.1.3-.4 0-.5a3 3 0 0 0-.5 0z"/>
</symbol><use href="#crash"/></svg>
