<svg xmlns="http://www.w3.org/2000/svg"><symbol id="for-you" xmlns="http://www.w3.org/2000/svg" width="24" height="24" fill="none" viewBox="0 0 32 32">
  <path fill="currentColor" d="M27.06 5.69a.81.81 0 1 1-1.62 0c0-.9-.73-1.63-1.63-1.63a.81.81 0 0 1 0-1.62c.9 0 1.63-.73 1.63-1.63a.81.81 0 0 1 1.62 0c0 .9.73 1.63 1.63 1.63a.81.81 0 1 1 0 1.62c-.9 0-1.63.73-1.63 1.63ZM30.17 31.08c0-.5.4-.91.91-.91a.92.92 0 1 0 0-1.84.92.92 0 0 1-.91-.91.92.92 0 0 0-1.84 0c0 .5-.4.91-.91.91a.92.92 0 1 0 0 1.84c.5 0 .91.4.91.91a.92.92 0 0 0 1.84 0ZM2 21.64a1 1 0 0 1-1 1 1 1 0 1 0 0 2 1 1 0 0 1 1 1 1 1 0 0 0 2 0 1 1 0 0 1 1-1 1 1 0 1 0 0-2 1 1 0 0 1-1-1 1 1 0 0 0-2 0ZM29.5 5.75a.75.75 0 1 1-1.5 0 .75.75 0 0 1 1.5 0ZM26.5 25.75a.75.75 0 1 1-1.5 0 .75.75 0 0 1 1.5 0ZM2.25 30.25a.75.75 0 1 1 1.5 0 .75.75 0 0 1-1.5 0ZM4.5 3.25a1.25 1.25 0 1 1-2.5 0 1.25 1.25 0 0 1 2.5 0ZM11.66 4.97l-.03 5.28c0 .26.3.42.51.28l5.29-3.47a.33.33 0 0 0-.08-.58L12.1 4.66a.33.33 0 0 0-.43.31ZM19.21 7.47l2.37 7c.09.25-.16.5-.42.41l-8.54-2.94a.33.33 0 0 1-.07-.59l6.17-4.05a.33.33 0 0 1 .5.17ZM20.8 7.66l5.26 1.81c.21.08.29.34.15.52l-3.23 4.16a.33.33 0 0 1-.57-.1l-2.03-5.97a.33.33 0 0 1 .42-.42ZM27.15 10.55l-3.63 4.68a.33.33 0 0 0 .16.52l5.13 1.77c.25.08.5-.14.43-.39l-1.5-6.46a.33.33 0 0 0-.59-.12ZM10.55 4.82l-.01 5.94c0 .23-.22.39-.44.31L4.97 9.3a.33.33 0 0 1-.1-.57L10 4.57a.33.33 0 0 1 .54.25ZM4.7 10.4l5.61 1.94c.13.05.22.17.22.31l-.06 14.04c0 .25-.35.3-.43.08L4.27 10.83a.33.33 0 0 1 .42-.43ZM12.06 12.94l8.93 3.08c.22.07.3.33.16.51l-9 11.62c-.2.25-.6.11-.6-.2l.07-14.7c0-.23.22-.38.44-.31ZM22.73 16.62l5.63 1.93c.26.1.3.45.07.6l-14.37 9c-.2.13-.44-.12-.29-.32l8.6-11.1a.33.33 0 0 1 .36-.11Z"/>
</symbol><use href="#for-you"/></svg>
