<svg xmlns="http://www.w3.org/2000/svg"><symbol id="new" width="24" height='24' viewBox="0 0 32 32" fill="none" xmlns="http://www.w3.org/2000/svg"><path fill="currentColor" d="M14.086 29.825C14.086 22.19 7.777 16-.004 16H0c7.782 0 14.092-6.19 14.092-13.825C14.092 9.81 20.4 16 28.183 16c-7.782 0-14.091 6.19-14.091 13.825h-.006ZM25.864 32c0-3.325-2.747-6.02-6.136-6.02 3.39 0 6.136-2.695 6.136-6.02 0 3.325 2.747 6.02 6.136 6.02-3.389 0-6.136 2.695-6.136 6.02ZM25.991 9.5c0-1.933-1.597-3.5-3.567-3.5 1.97 0 3.567-1.567 3.567-3.5 0 1.933 1.597 3.5 3.568 3.5-1.97 0-3.568 1.567-3.568 3.5Z"/></symbol><use href="#new"/></svg>
