<svg xmlns="http://www.w3.org/2000/svg"><symbol id="promotions" xmlns="http://www.w3.org/2000/svg" width="24" height="24" fill="none"><path fill="currentColor" fill-rule="evenodd" d="M12 2h2.44c.31 0 .56.25.56.56V5.6c0 1.34-.63 2.53-1.62 3.3a3.7 3.7 0 0 1-2.02.71 4.49 4.49 0 0 1-3.11 1.82V16H9.5c.28 0 .5.22.5.5V18h1.5c.28 0 .5.22.5.5v1a.5.5 0 0 1-.5.5h-8a.5.5 0 0 1-.5-.5v-1c0-.28.22-.5.5-.5H5v-1.5c0-.28.22-.5.5-.5h1.25v-4.56a4.49 4.49 0 0 1-3.1-1.82 3.7 3.7 0 0 1-2.03-.72A4.15 4.15 0 0 1 0 5.61V2.56C0 2.25.25 2 .56 2H3V.4c0-.22.18-.4.4-.4h8.2c.22 0 .4.18.4.4V2ZM1 5.61c0 .99.45 1.9 1.23 2.5.26.2.57.34.91.43A3.9 3.9 0 0 1 3 7.5V3H1v2.61Zm7.66.23 1.12-.92a.2.2 0 0 0-.12-.36l-1.44-.09-.53-1.34a.2.2 0 0 0-.38 0l-.53 1.34-1.44.1a.2.2 0 0 0-.12.35l1.12.92-.36 1.4a.2.2 0 0 0 .3.22L7.5 6.7l1.22.77a.2.2 0 0 0 .3-.22l-.36-1.4Zm4.11 2.27A3.14 3.14 0 0 0 14 5.61V3h-2v4.5c0 .37-.05.71-.14 1.04.34-.09.66-.23.91-.43ZM23.5 15h-.93a2.57 2.57 0 1 0-4.46-2.53A2 2 0 0 0 15.2 15h-1.7a.5.5 0 0 0-.5.5v2c0 .28.22.5.5.5h10a.5.5 0 0 0 .5-.5v-2a.5.5 0 0 0-.5-.5Zm-3.07-2.86a1.43 1.43 0 0 1 0 2.86H19v-1.43c0-.79.64-1.43 1.43-1.43Zm-4.29 2a.86.86 0 0 1 1.72 0V15H17a.86.86 0 0 1-.86-.86Z" clip-rule="evenodd"/><path fill="currentColor" d="M18 19h-4v4.5c0 .28.22.5.5.5H18v-5Zm5 0h-4v5h3.5a.5.5 0 0 0 .5-.5V19Z"/></symbol><use href="#promotions"/></svg>
