<svg xmlns="http://www.w3.org/2000/svg"><symbol id="slots" xmlns="http://www.w3.org/2000/svg" width="24" height="24" fill="none"><path fill="currentColor" d="m7.3 11.42 1.14.49c.08.03.08.15 0 .18l-1.14.49-.05.05-.42 1.3c-.03.1-.13.1-.16 0l-.42-1.3-.05-.06-1.14-.48c-.08-.03-.08-.15 0-.18l1.14-.48.05-.06.42-1.3c.03-.1.13-.1.16 0l.42 1.3.05.05Zm9 0 1.14.49c.08.03.08.15 0 .18l-1.14.49-.05.05-.42 1.3c-.03.1-.13.1-.16 0l-.42-1.3-.05-.06-1.14-.48c-.08-.03-.08-.15 0-.18l1.14-.48.05-.06.42-1.3c.03-.1.13-.1.16 0l.42 1.3.05.05Zm-3.36.48-1.14-.48-.05-.05-.42-1.3c-.03-.1-.13-.1-.16 0l-.42 1.3-.05.06-1.14.48c-.08.03-.08.15 0 .18l1.14.48.05.06.42 1.3c.03.1.13.1.16 0l.42-1.3.05-.05 1.14-.49c.08-.03.08-.15 0-.18Z"/><path fill="currentColor" fill-rule="evenodd" d="M21 4.5a1.5 1.5 0 1 1 2 1.4v5.6a1 1 0 0 1-1 1h-1.5V14a1 1 0 0 1-1 1v8a1 1 0 0 1-1 1H4a1 1 0 0 1-1-1V4a1 1 0 0 1 1-1h2.84a4.75 4.75 0 0 1 8.82 0h2.84a1 1 0 0 1 1 1v5a1 1 0 0 1 1 1v1.5H22V5.9c-.58-.2-1-.75-1-1.4ZM10.57 2.88l-1.34.08a.2.2 0 0 0-.11.35l1.03.86-.33 1.3a.2.2 0 0 0 .3.22l1.13-.72 1.13.72a.2.2 0 0 0 .3-.22l-.33-1.3 1.03-.86a.2.2 0 0 0-.11-.35l-1.34-.08-.5-1.25a.2.2 0 0 0-.37 0l-.49 1.25ZM6.5 21a1 1 0 0 0 1 1H15a1 1 0 1 0 0-2H7.5a1 1 0 0 0-1 1Zm12-6.5V9a1 1 0 0 0-1-1H5a1 1 0 0 0-1 1v5.5a1 1 0 0 0 1 1h12.5a1 1 0 0 0 1-1Z" clip-rule="evenodd"/></symbol><use href="#slots"/></svg>
