<svg width="26" height="37" viewBox="0 0 26 37" fill="none" xmlns="http://www.w3.org/2000/svg"><path d="M14.653 14.953c-3.908.244-2.153 5.343 2.169 5.078 4.224-.264 1.998-5.333-2.169-5.078" fill="#F19021"/><path d="M13.002 35.53a11.26 11.26 0 0 1-6.259-1.9 11.3 11.3 0 0 1-4.149-5.065A11.3 11.3 0 0 1 5.036 16.27a11.25 11.25 0 0 1 12.277-2.446 11.27 11.27 0 0 1 5.056 4.156 11.3 11.3 0 0 1-1.401 14.247 11.26 11.26 0 0 1-7.966 3.305m0-23.904c-2.492 0-4.927.739-7 2.125a12.6 12.6 0 0 0-4.64 5.663 12.64 12.64 0 0 0 2.731 13.751A12.58 12.58 0 0 0 17.822 35.9a12.6 12.6 0 0 0 5.653-4.648 12.63 12.63 0 0 0-1.566-15.931 12.6 12.6 0 0 0-8.907-3.695m-.38-8.628C9.63 5.264 10.15 8.734 10.15 8.734S8.27 3.854 5.83.86c-.33 3.845.875 8.94.875 8.94S5.177 6.642 1.433 6.466c3.098 1.79 4.309 5.01 4.585 5.873a12.53 12.53 0 0 1 6.142-1.856c-.245-.806-1.117-4.195.462-7.475" fill="#F19021"/><path d="M6.913 23.584a1.16 1.16 0 0 0-.322-.882c-.215-.201-.563-.303-1.034-.303H4.46v2.36h1.097q1.356 0 1.356-1.175M4.46 25.656v2.639H3.364v-6.801h2.309q1.172 0 1.764.564.594.564.592 1.532 0 .965-.606 1.517-.605.553-1.75.554zm5.455 1.781h2.348v.857H8.82v-6.802h1.095zm7.059-1.464-1.126-3.179-1.127 3.18zm.308.847h-2.865l-.52 1.473h-1.174l2.5-6.695h1.268l2.492 6.695H17.81zm6.098-5.328-2.26 4.325v2.477h-1.107v-2.477l-2.269-4.325h1.269l1.559 3.15 1.559-3.15z" fill="#fff"/></svg>