<svg width="32" height="32" fill="none" xmlns="http://www.w3.org/2000/svg"><path fill-rule="evenodd" clip-rule="evenodd" d="M2 16C2 8.268 8.268 2 16 2s14 6.268 14 14-6.268 14-14 14S2 23.732 2 16Zm-2 0C0 7.163 7.163 0 16 0s16 7.163 16 16-7.163 16-16 16S0 24.837 0 16Zm10.808-2.681 5.205 5.163 5.205-5.163a1.055 1.055 0 0 1 1.474.012 1.039 1.039 0 0 1 .013 1.463l-5.949 5.9a1.056 1.056 0 0 1-1.486 0l-5.949-5.9A1.045 1.045 0 0 1 9 14.052a1.036 1.036 0 0 1 .653-.974 1.058 1.058 0 0 1 1.155.24Z" fill="#fff"/></svg>